<?xml version="1.0" encoding="UTF-8" standalone="no"?>
<svg xmlns="http://www.w3.org/2000/svg" viewBox="67.043492 98.052642 83.597076 83.597076" version="1.1">
    <circle style="fill:#000099;fill-opacity:1;stroke:#000099;stroke-width:0.665562;stroke-miterlimit:4;stroke-dasharray:none;stroke-opacity:1"
            cx="108.84203"
            cy="139.85118"
            r="41.798538"/>
    <path style="fill:none;stroke:#000000;stroke-width:0.267608px;stroke-linecap:butt;stroke-linejoin:miter;stroke-opacity:1"
          d="m 71.530015,121.12608 74.563375,0.22804"/>
    <path style="fill:none;stroke:#000000;stroke-width:0.268123px;stroke-linecap:butt;stroke-linejoin:miter;stroke-opacity:1"
          d="m 71.193965,158.46959 74.844795,0.22806"/>
    <path style="fill:#ff0000;fill-opacity:1;stroke:#ff0000;stroke-width:0.596884;stroke-linecap:round;stroke-linejoin:round;stroke-miterlimit:4;stroke-dasharray:none;stroke-opacity:1;paint-order:stroke fill markers"
          d="m 106.14342,158.41754 c -19.127465,-0.0651 -34.801295,-0.14217 -34.830735,-0.17129 -0.0294,-0.0291 -0.41134,-0.86852 -0.84867,-1.86533 -1.485854,-3.38676 -2.438556,-6.71694 -3.074617,-10.74735 -0.248677,-1.57575 -0.301193,-2.55301 -0.306383,-5.70157 -0.0054,-3.29713 0.03799,-4.08847 0.328217,-5.98127 0.59753,-3.89697 1.714519,-7.70164 3.264113,-11.11813 l 0.67024,-1.47773 27.74422,0.0381 c 15.259325,0.0209 32.174695,0.076 37.589715,0.12243 l 9.84551,0.0844 0.56898,1.28493 c 2.16731,4.89443 3.19952,9.09149 3.58042,14.55827 0.26126,3.74977 -0.1885,8.6405 -1.14323,12.43159 -0.4677,1.85715 -1.66245,5.2497 -2.47086,7.01615 l -0.74069,1.61846 -2.69951,0.0134 c -1.48473,0.007 -18.34925,-0.0399 -37.47672,-0.10496 z"/>
    <path style="fill:none;stroke:#ffffff;stroke-width:1.11114;stroke-linecap:round;stroke-linejoin:round;stroke-miterlimit:4;stroke-dasharray:none;stroke-opacity:1;paint-order:stroke fill markers"
          d="m 67.066431,139.76054 8.731064,-0.0639 1.67999,-1.49743 1.68001,3.63662 0.97999,-7.05929 1.68001,5.4549 1.25998,-2.3531 1.4,3.20876 1.12,-4.06445 1.11999,3.31575 1.54,-2.13919 1.11999,3.31575 0.98001,-3.74359 1.25999,1.92527 1.68,-1.39048 1.4,2.03224 0.84001,-1.71134 1.53999,0.7487 1.11999,-0.85566 1.11999,-12.94208 1.399995,45.24377 0.97999,-37.11489 1.40001,12.51426 1.25999,-39.68191 1.39999,55.61886 0.98,-28.34423 1.67999,14.97429 1.12,-20.64314 c 0,0 1.54,18.50395 1.54,18.07613 0,-0.42782 1.11999,-13.47688 1.11999,-13.47688 l 1.12001,13.15599 c 0,0 1.25999,-14.9743 1.25999,-14.33253 0,0.64175 1.81997,8.02194 1.81997,8.02194 l 1.26,-4.59923 0.84002,6.63145 1.25999,-10.26809 1.67998,16.0439 1.26001,-12.51422 0.98,16.25779 1.54,-13.58381 1.54,11.65856 1.11999,-17.11351 1.39999,13.47689 1.25998,-9.19851 1.40001,7.27325 0.98002,-8.12891 1.26,4.06444 1.67996,-1.92528 1.26002,2.35314 0.84002,-1.60442 1.53999,0.64177 1.25998,-0.96264 1.39999,1.71135 1.12001,-1.17654 1.26001,0.96262 6.11052,-0.12915"/>
</svg>
